. 
  
http://www.torrentday.com/        :     The Hottest Private Tracker On The Net!!!


               www . TorrentDay . Com 
(((((((((((((= Enjoy No RAR releases =))))))))))))))))))))


...................................NFO:....................................

.                                                                                                     
       
     
     
       
       
     
     
                                         
                                         
                EXVID                    
                                         
         
                                         
         Filled the Archives             
                                         
         
                                         
                With:                    
                                         
         
                                         
                                    
     E240                           
                                    
     SP               (C) 2009      
                                         
     
     
     
                                                                                  
                                                                                   
                 Fame.2009.THEATRiCAL.DVDRip.XviD-EXViD                             
                                                                                   
                                                                                  
     
                                                                                               
EXViD aims to iNTERNAL those releases which have been lost in the archives.
EXViD aims to PRE non-internal releases which have poor sources and are likely skipped by others. 
http://www.imdb.com/title/tt1016075/
Subtitles: NL
Date: 2010.11

Director:
Kevin Tancharoen

Genres:
Comedy | Drama | Family | Musical | Romance

Plot:
An updated version of the 1980 musical, which centered on the students of the New York Academy
of Performing Arts.

Cast
Credited cast:
Kay Panabaker 	... 	Jenny Garrison 
Walter Perez 	... 	Victor Tavares 
Naturi Naughton 	... 	Denise Dupree 
Asher Book 	... 	Marco 
Kherington Payne 	... 	Alice Ellerton 
Collins Pennie 	... 	Malik Washburn 
Kristy Flores 	... 	Rosie Martinez 
Paul McGill 	... 	Kevin Barrett 
Bebe Neuwirth 	... 	Ms. Kraft 
Paul Iacono 	... 	Neil Baczynsky 
Charles S. Dutton 	... 	Mr. James Dowd 
Kelsey Grammer 	... 	Mr. Martin Cranston 
Anna Maria Perez de Tagle 	... 	Joy 
Megan Mullally 	... 	Ms. Fran Rowan 
Debbie Allen 	... 	Ms. Angela Simms         

Stats:
General
Format                           : AVI
Format/Info                      : Audio Video Interleave
File size                        : 701 MiB
Duration                         : 1h 42mn
Overall bit rate                 : 955 Kbps
Writing application              : VirtualDubMod 1.5.10.2 (build 2540/release)
Writing library                  : VirtualDubMod build 2540/release

Video
ID                               : 0
Format                           : MPEG-4 Visual
Format profile                   : Advanced Simple@L5
Format settings, BVOP            : Yes
Format settings, QPel            : No
Format settings, GMC             : No warppoints
Format settings, Matrix          : Default (H.263)
Muxing mode                      : Packed bitstream
Codec ID                         : XVID
Codec ID/Hint                    : XviD
Duration                         : 1h 42mn
Bit rate                         : 814 Kbps
Width                            : 624 pixels
Height                           : 256 pixels
Display aspect ratio             : 2.40:1
Frame rate                       : 25.000 fps
Color space                      : YUV
Chroma subsampling               : 4:2:0
Bit depth                        : 8 bits
Scan type                        : Progressive
Bits/(Pixel*Frame)               : 0.204
Stream size                      : 597 MiB (85%)
Writing library                  : XviD 1.2.1 (UTC 2008-12-04)

Audio
ID                               : 1
Format                           : MPEG Audio
Format version                   : Version 1
Format profile                   : Layer 3
Mode                             : Joint stereo
Codec ID                         : 55
Codec ID/Hint                    : MP3
Duration                         : 1h 42mn
Bit rate mode                    : Variable
Bit rate                         : 128 Kbps
Channel(s)                       : 2 channels
Sampling rate                    : 48.0 KHz
Stream size                      : 94.0 MiB (13%)
Alignment                        : Aligned on interleaves
Interleave, duration             : 24 ms (0.60 video frame)
Interleave, preload duration     : 143 ms
Writing library                  : LAME3.90.
Encoding settings                : -m j -V 4 -q 2 -lowpass 17.6 --abr 128





Release notes:
NeDiVx did the EXTENDED version about a year ago. This is the THEATRiCAL version.
For the collectors!

Enjoy!

Looking for:
75TB+ Archives
DUTCH/FLEMiSH Archives
                                                                                                    
Greets: CRBS EPiSODE FiCO FLS iLS KLASSiGER LiPSYNC MADE NODLABS RUNNER TNAN       
   

                                                                    ASCII DONE BY XX^NFO 2oo9